<?xml version="1.0" standalone="no"?>
<!DOCTYPE svg PUBLIC "-//W3C//DTD SVG 20010904//EN"
 "http://www.w3.org/TR/2001/REC-SVG-20010904/DTD/svg10.dtd">
<svg version="1.0" xmlns="http://www.w3.org/2000/svg"
 width="0.000000pt" height="0.000000pt" viewBox="0 0 0.000000 0.000000"
 preserveAspectRatio="xMidYMid meet">

<g transform="translate(0.000000,48.000000) scale(0.100000,-0.100000)"
fill="#000000" stroke="none">
<path d="M130 471 c-48 -15 -109 -51 -120 -70 -6 -12 -10 -98 -10 -210 l0
-191 480 0 480 0 0 60 c0 33 4 60 10 60 9 0 52 -58 75 -101 9 -18 25 -19 222
-19 l213 0 0 125 0 125 100 0 100 0 0 115 0 115 -220 0 c-212 0 -221 -1 -276
-25 -69 -31 -78 -31 -117 -2 -32 22 -33 22 -472 24 -242 1 -451 -2 -465 -6z
m368 -113 l3 -38 -161 0 -162 0 -29 -29 c-24 -25 -29 -37 -29 -80 l0 -51 191
0 190 0 -3 -37 -3 -38 -242 -3 -243 -2 0 87 c1 123 26 176 105 217 25 13 61
16 205 14 l175 -3 3 -37z m528 26 c29 -14 44 -37 104 -154 38 -76 70 -141 70
-144 0 -3 -25 -6 -55 -6 l-55 0 -49 99 c-71 141 -71 141 -252 141 l-149 0 0
-120 0 -120 -45 0 -45 0 0 160 0 160 221 0 c182 0 227 -3 255 -16z m564 -24
l0 -40 -95 0 -95 0 0 -120 0 -120 -45 0 -45 0 0 121 0 122 -32 -7 c-17 -3 -51
-16 -74 -28 -24 -12 -45 -20 -46 -17 -38 62 -39 68 -16 81 81 45 88 46 271 47
l177 1 0 -40z m-702 -182 l-3 -103 -50 0 -50 0 -3 103 -3 102 56 0 56 0 -3
-102z"/>
</g>
</svg>
